<svg width="934" height="224" viewBox="0 0 934 224" fill="none" xmlns="http://www.w3.org/2000/svg">
<path d="M244.512 152V75.0909H264.841V88.6602H265.742C267.344 84.1538 270.015 80.5987 273.754 77.995C277.492 75.3913 281.965 74.0895 287.173 74.0895C292.447 74.0895 296.936 75.408 300.642 78.0451C304.347 80.6488 306.817 84.1871 308.052 88.6602H308.853C310.422 84.2539 313.26 80.7322 317.365 78.0952C321.505 75.4247 326.395 74.0895 332.036 74.0895C339.213 74.0895 345.038 76.3761 349.511 80.9492C354.017 85.489 356.271 91.9315 356.271 100.277V152H334.99V104.483C334.99 100.21 333.855 97.0053 331.586 94.869C329.316 92.7326 326.478 91.6644 323.074 91.6644C319.201 91.6644 316.18 92.8995 314.011 95.3697C311.841 97.8065 310.756 101.028 310.756 105.033V152H290.077V104.032C290.077 100.26 288.992 97.2557 286.822 95.0192C284.686 92.7827 281.865 91.6644 278.36 91.6644C275.99 91.6644 273.854 92.2653 271.951 93.467C270.082 94.6353 268.596 96.2876 267.495 98.424C266.393 100.527 265.842 102.997 265.842 105.835V152H244.512ZM383.534 180.841C380.83 180.841 378.294 180.624 375.923 180.19C373.587 179.789 371.651 179.272 370.115 178.638L374.922 162.715C377.426 163.483 379.679 163.9 381.682 163.967C383.718 164.034 385.47 163.566 386.939 162.565C388.441 161.564 389.66 159.861 390.594 157.458L391.846 154.203L364.257 75.0909H386.689L402.611 131.571H403.412L419.485 75.0909H442.067L412.175 160.312C410.74 164.451 408.787 168.056 406.317 171.127C403.88 174.232 400.792 176.618 397.053 178.287C393.315 179.99 388.808 180.841 383.534 180.841ZM452.983 152V75.0909H473.312V88.6602H474.213C475.815 84.1538 478.486 80.5987 482.224 77.995C485.963 75.3913 490.436 74.0895 495.643 74.0895C500.917 74.0895 505.407 75.408 509.112 78.0451C512.818 80.6488 515.288 84.1871 516.523 88.6602H517.324C518.893 84.2539 521.73 80.7322 525.836 78.0952C529.975 75.4247 534.866 74.0895 540.507 74.0895C547.684 74.0895 553.509 76.3761 557.982 80.9492C562.488 85.489 564.741 91.9315 564.741 100.277V152H543.461V104.483C543.461 100.21 542.326 97.0053 540.056 94.869C537.786 92.7326 534.949 91.6644 531.544 91.6644C527.672 91.6644 524.651 92.8995 522.481 95.3697C520.312 97.8065 519.227 101.028 519.227 105.033V152H498.547V104.032C498.547 100.26 497.463 97.2557 495.293 95.0192C493.156 92.7827 490.336 91.6644 486.831 91.6644C484.461 91.6644 482.324 92.2653 480.422 93.467C478.552 94.6353 477.067 96.2876 475.965 98.424C474.864 100.527 474.313 102.997 474.313 105.835V152H452.983ZM603.521 153.452C598.614 153.452 594.241 152.601 590.403 150.898C586.564 149.163 583.526 146.609 581.29 143.238C579.087 139.833 577.985 135.593 577.985 130.52C577.985 126.247 578.77 122.658 580.338 119.754C581.907 116.85 584.044 114.513 586.748 112.744C589.451 110.975 592.522 109.64 595.961 108.739C599.432 107.837 603.071 107.203 606.876 106.836C611.349 106.369 614.954 105.935 617.691 105.534C620.429 105.1 622.415 104.466 623.65 103.631C624.885 102.797 625.502 101.562 625.502 99.9261V99.6257C625.502 96.4545 624.501 94.0011 622.498 92.2653C620.529 90.5295 617.725 89.6616 614.086 89.6616C610.248 89.6616 607.193 90.5128 604.923 92.2152C602.653 93.8842 601.151 95.9872 600.417 98.5241L580.689 96.9219C581.69 92.2486 583.66 88.2095 586.597 84.8047C589.535 81.3665 593.324 78.7294 597.963 76.8935C602.637 75.0241 608.044 74.0895 614.186 74.0895C618.459 74.0895 622.548 74.5902 626.454 75.5916C630.393 76.593 633.881 78.1452 636.919 80.2482C639.99 82.3512 642.41 85.055 644.179 88.3597C645.948 91.631 646.833 95.5533 646.833 100.126V152H626.604V141.335H626.003C624.768 143.738 623.116 145.858 621.046 147.694C618.977 149.496 616.49 150.915 613.586 151.95C610.681 152.951 607.327 153.452 603.521 153.452ZM609.63 138.731C612.768 138.731 615.538 138.114 617.942 136.879C620.345 135.61 622.231 133.908 623.6 131.771C624.968 129.635 625.653 127.215 625.653 124.511V116.349C624.985 116.783 624.067 117.184 622.899 117.551C621.764 117.885 620.479 118.202 619.043 118.502C617.608 118.77 616.173 119.02 614.737 119.254C613.302 119.454 612 119.637 610.832 119.804C608.328 120.172 606.142 120.756 604.272 121.557C602.403 122.358 600.951 123.443 599.916 124.811C598.881 126.147 598.364 127.816 598.364 129.819C598.364 132.723 599.415 134.942 601.518 136.478C603.655 137.98 606.359 138.731 609.63 138.731ZM704.289 75.0909V91.1136H657.974V75.0909H704.289ZM668.488 56.6648H689.819V128.366C689.819 130.336 690.119 131.871 690.72 132.973C691.321 134.041 692.155 134.792 693.224 135.226C694.325 135.66 695.594 135.877 697.029 135.877C698.03 135.877 699.032 135.794 700.033 135.627C701.035 135.426 701.802 135.276 702.336 135.176L705.691 151.049C704.623 151.382 703.121 151.766 701.185 152.2C699.249 152.668 696.895 152.951 694.125 153.051C688.984 153.252 684.478 152.567 680.606 150.999C676.767 149.43 673.779 146.993 671.643 143.688C669.507 140.384 668.455 136.211 668.488 131.17V56.6648ZM718.184 152V75.0909H738.863V88.5099H739.664C741.066 83.7365 743.42 80.1314 746.724 77.6946C750.029 75.2244 753.835 73.9893 758.141 73.9893C759.209 73.9893 760.36 74.0561 761.596 74.1896C762.831 74.3232 763.915 74.5067 764.85 74.7404V93.6673C763.849 93.3668 762.463 93.0998 760.694 92.8661C758.925 92.6325 757.306 92.5156 755.837 92.5156C752.7 92.5156 749.896 93.1999 747.425 94.5685C744.989 95.9038 743.053 97.7731 741.617 100.176C740.215 102.58 739.514 105.35 739.514 108.488V152H718.184ZM775.878 152V75.0909H797.209V152H775.878ZM786.593 65.1768C783.422 65.1768 780.702 64.1254 778.432 62.0224C776.195 59.886 775.077 57.3324 775.077 54.3615C775.077 51.424 776.195 48.9038 778.432 46.8008C780.702 44.6644 783.422 43.5962 786.593 43.5962C789.765 43.5962 792.468 44.6644 794.705 46.8008C796.975 48.9038 798.11 51.424 798.11 54.3615C798.11 57.3324 796.975 59.886 794.705 62.0224C792.468 64.1254 789.765 65.1768 786.593 65.1768ZM832.121 75.0909L846.241 101.979L860.711 75.0909H882.592L860.311 113.545L883.193 152H861.412L846.241 125.412L831.319 152H809.288L832.121 113.545L810.089 75.0909H832.121Z" fill="#3D52A1"/>
<rect x="42" y="37" width="45" height="45" rx="6.75" fill="#3D52A1"/>
<rect x="42" y="88.75" width="45" height="45" rx="6.75" fill="#AFA2FF"/>
<path d="M42 147.25C42 143.522 45.0221 140.5 48.75 140.5H80.25C83.9779 140.5 87 143.522 87 147.25V178.75C87 182.478 83.9779 185.5 80.25 185.5H48.75C45.0221 185.5 42 182.478 42 178.75V147.25Z" fill="#AFA2FF"/>
<rect x="93.75" y="88.75" width="45" height="45" rx="6.75" fill="#3D52A1"/>
<rect x="93.75" y="140.5" width="45" height="45" rx="6.75" fill="#3D52A1"/>
<rect x="145.5" y="37" width="45" height="45" rx="6.75" fill="#3D52A1"/>
<rect x="145.5" y="88.75" width="45" height="45" rx="6.75" fill="#AFA2FF"/>
<path d="M145.5 147.25C145.5 143.522 148.522 140.5 152.25 140.5H183.75C187.478 140.5 190.5 143.522 190.5 147.25V178.75C190.5 182.478 187.478 185.5 183.75 185.5H152.25C148.522 185.5 145.5 182.478 145.5 178.75V147.25Z" fill="#AFA2FF"/>
</svg>
