<svg width="934" height="224" viewBox="0 0 934 224" fill="none" xmlns="http://www.w3.org/2000/svg">
<path d="M203.512 152V75.0909H223.841V88.6602H224.742C226.344 84.1538 229.015 80.5987 232.754 77.995C236.492 75.3913 240.965 74.0895 246.173 74.0895C251.447 74.0895 255.936 75.408 259.642 78.0451C263.347 80.6488 265.817 84.1871 267.052 88.6602H267.853C269.422 84.2539 272.26 80.7322 276.365 78.0952C280.505 75.4247 285.395 74.0895 291.036 74.0895C298.213 74.0895 304.038 76.3761 308.511 80.9492C313.017 85.489 315.271 91.9315 315.271 100.277V152H293.99V104.483C293.99 100.21 292.855 97.0053 290.586 94.869C288.316 92.7326 285.478 91.6644 282.074 91.6644C278.201 91.6644 275.18 92.8995 273.011 95.3697C270.841 97.8065 269.756 101.028 269.756 105.033V152H249.077V104.032C249.077 100.26 247.992 97.2557 245.822 95.0192C243.686 92.7827 240.865 91.6644 237.36 91.6644C234.99 91.6644 232.854 92.2653 230.951 93.467C229.082 94.6353 227.596 96.2876 226.495 98.424C225.393 100.527 224.842 102.997 224.842 105.835V152H203.512ZM342.534 180.841C339.83 180.841 337.294 180.624 334.923 180.19C332.587 179.789 330.651 179.272 329.115 178.638L333.922 162.715C336.426 163.483 338.679 163.9 340.682 163.967C342.718 164.034 344.47 163.566 345.939 162.565C347.441 161.564 348.66 159.861 349.594 157.458L350.846 154.203L323.257 75.0909H345.689L361.611 131.571H362.412L378.485 75.0909H401.067L371.175 160.312C369.74 164.451 367.787 168.056 365.317 171.127C362.88 174.232 359.792 176.618 356.053 178.287C352.315 179.99 347.808 180.841 342.534 180.841ZM411.983 152V75.0909H432.312V88.6602H433.213C434.815 84.1538 437.486 80.5987 441.224 77.995C444.963 75.3913 449.436 74.0895 454.643 74.0895C459.917 74.0895 464.407 75.408 468.112 78.0451C471.818 80.6488 474.288 84.1871 475.523 88.6602H476.324C477.893 84.2539 480.73 80.7322 484.836 78.0952C488.975 75.4247 493.866 74.0895 499.507 74.0895C506.684 74.0895 512.509 76.3761 516.982 80.9492C521.488 85.489 523.741 91.9315 523.741 100.277V152H502.461V104.483C502.461 100.21 501.326 97.0053 499.056 94.869C496.786 92.7326 493.949 91.6644 490.544 91.6644C486.672 91.6644 483.651 92.8995 481.481 95.3697C479.312 97.8065 478.227 101.028 478.227 105.033V152H457.547V104.032C457.547 100.26 456.463 97.2557 454.293 95.0192C452.156 92.7827 449.336 91.6644 445.831 91.6644C443.461 91.6644 441.324 92.2653 439.422 93.467C437.552 94.6353 436.067 96.2876 434.965 98.424C433.864 100.527 433.313 102.997 433.313 105.835V152H411.983ZM562.521 153.452C557.614 153.452 553.241 152.601 549.403 150.898C545.564 149.163 542.526 146.609 540.29 143.238C538.087 139.833 536.985 135.593 536.985 130.52C536.985 126.247 537.77 122.658 539.338 119.754C540.907 116.85 543.044 114.513 545.748 112.744C548.451 110.975 551.522 109.64 554.961 108.739C558.432 107.837 562.071 107.203 565.876 106.836C570.349 106.369 573.954 105.935 576.691 105.534C579.429 105.1 581.415 104.466 582.65 103.631C583.885 102.797 584.502 101.562 584.502 99.9261V99.6257C584.502 96.4545 583.501 94.0011 581.498 92.2653C579.529 90.5295 576.725 89.6616 573.086 89.6616C569.248 89.6616 566.193 90.5128 563.923 92.2152C561.653 93.8842 560.151 95.9872 559.417 98.5241L539.689 96.9219C540.69 92.2486 542.66 88.2095 545.597 84.8047C548.535 81.3665 552.324 78.7294 556.963 76.8935C561.637 75.0241 567.044 74.0895 573.186 74.0895C577.459 74.0895 581.548 74.5902 585.454 75.5916C589.393 76.593 592.881 78.1452 595.919 80.2482C598.99 82.3512 601.41 85.055 603.179 88.3597C604.948 91.631 605.833 95.5533 605.833 100.126V152H585.604V141.335H585.003C583.768 143.738 582.116 145.858 580.046 147.694C577.977 149.496 575.49 150.915 572.586 151.95C569.681 152.951 566.327 153.452 562.521 153.452ZM568.63 138.731C571.768 138.731 574.538 138.114 576.942 136.879C579.345 135.61 581.231 133.908 582.6 131.771C583.968 129.635 584.653 127.215 584.653 124.511V116.349C583.985 116.783 583.067 117.184 581.899 117.551C580.764 117.885 579.479 118.202 578.043 118.502C576.608 118.77 575.173 119.02 573.737 119.254C572.302 119.454 571 119.637 569.832 119.804C567.328 120.172 565.142 120.756 563.272 121.557C561.403 122.358 559.951 123.443 558.916 124.811C557.881 126.147 557.364 127.816 557.364 129.819C557.364 132.723 558.415 134.942 560.518 136.478C562.655 137.98 565.359 138.731 568.63 138.731ZM663.289 75.0909V91.1136H616.974V75.0909H663.289ZM627.488 56.6648H648.819V128.366C648.819 130.336 649.119 131.871 649.72 132.973C650.321 134.041 651.155 134.792 652.224 135.226C653.325 135.66 654.594 135.877 656.029 135.877C657.03 135.877 658.032 135.794 659.033 135.627C660.035 135.426 660.802 135.276 661.336 135.176L664.691 151.049C663.623 151.382 662.121 151.766 660.185 152.2C658.249 152.668 655.895 152.951 653.125 153.051C647.984 153.252 643.478 152.567 639.606 150.999C635.767 149.43 632.779 146.993 630.643 143.688C628.507 140.384 627.455 136.211 627.488 131.17V56.6648ZM677.184 152V75.0909H697.863V88.5099H698.664C700.066 83.7365 702.42 80.1314 705.724 77.6946C709.029 75.2244 712.835 73.9893 717.141 73.9893C718.209 73.9893 719.36 74.0561 720.596 74.1896C721.831 74.3232 722.915 74.5067 723.85 74.7404V93.6673C722.849 93.3668 721.463 93.0998 719.694 92.8661C717.925 92.6325 716.306 92.5156 714.837 92.5156C711.7 92.5156 708.896 93.1999 706.425 94.5685C703.989 95.9038 702.053 97.7731 700.617 100.176C699.215 102.58 698.514 105.35 698.514 108.488V152H677.184ZM734.878 152V75.0909H756.209V152H734.878ZM745.593 65.1768C742.422 65.1768 739.702 64.1254 737.432 62.0224C735.195 59.886 734.077 57.3324 734.077 54.3615C734.077 51.424 735.195 48.9038 737.432 46.8008C739.702 44.6644 742.422 43.5962 745.593 43.5962C748.765 43.5962 751.468 44.6644 753.705 46.8008C755.975 48.9038 757.11 51.424 757.11 54.3615C757.11 57.3324 755.975 59.886 753.705 62.0224C751.468 64.1254 748.765 65.1768 745.593 65.1768ZM791.121 75.0909L805.241 101.979L819.711 75.0909H841.592L819.311 113.545L842.193 152H820.412L805.241 125.412L790.319 152H768.288L791.121 113.545L769.089 75.0909H791.121Z" fill="#3D52A1"/>
<rect x="1" y="37" width="45" height="45" rx="6.75" fill="#3D52A1"/>
<rect x="1" y="88.75" width="45" height="45" rx="6.75" fill="#AFA2FF"/>
<path d="M1 147.25C1 143.522 4.02208 140.5 7.75 140.5H39.25C42.9779 140.5 46 143.522 46 147.25V178.75C46 182.478 42.9779 185.5 39.25 185.5H7.75C4.02208 185.5 1 182.478 1 178.75V147.25Z" fill="#AFA2FF"/>
<rect x="52.75" y="88.75" width="45" height="45" rx="6.75" fill="#3D52A1"/>
<rect x="52.75" y="140.5" width="45" height="45" rx="6.75" fill="#3D52A1"/>
<rect x="104.5" y="37" width="45" height="45" rx="6.75" fill="#3D52A1"/>
<rect x="104.5" y="88.75" width="45" height="45" rx="6.75" fill="#AFA2FF"/>
<path d="M104.5 147.25C104.5 143.522 107.522 140.5 111.25 140.5H142.75C146.478 140.5 149.5 143.522 149.5 147.25V178.75C149.5 182.478 146.478 185.5 142.75 185.5H111.25C107.522 185.5 104.5 182.478 104.5 178.75V147.25Z" fill="#AFA2FF"/>
</svg>
