<svg width="4500" height="4500" viewBox="0 0 4500 4500" fill="none" xmlns="http://www.w3.org/2000/svg">
<path d="M1350 1431.82C1350 1386.63 1386.63 1350 1431.82 1350H1813.64C1858.82 1350 1895.45 1386.63 1895.45 1431.82V1813.64C1895.45 1858.82 1858.82 1895.45 1813.64 1895.45H1431.82C1386.63 1895.45 1350 1858.82 1350 1813.64V1431.82Z" fill="black"/>
<path d="M1350 2059.09C1350 2013.9 1386.63 1977.27 1431.82 1977.27H1813.64C1858.82 1977.27 1895.45 2013.9 1895.45 2059.09V2440.91C1895.45 2486.1 1858.82 2522.73 1813.64 2522.73H1431.82C1386.63 2522.73 1350 2486.1 1350 2440.91V2059.09Z" fill="#898989"/>
<path d="M1350 2686.36C1350 2641.18 1386.63 2604.55 1431.82 2604.55H1813.64C1858.82 2604.55 1895.45 2641.18 1895.45 2686.36V3068.18C1895.45 3113.37 1858.82 3150 1813.64 3150H1431.82C1386.63 3150 1350 3113.37 1350 3068.18V2686.36Z" fill="#898989"/>
<path d="M1977.27 2059.09C1977.27 2013.9 2013.9 1977.27 2059.09 1977.27H2440.91C2486.1 1977.27 2522.73 2013.9 2522.73 2059.09V2440.91C2522.73 2486.1 2486.1 2522.73 2440.91 2522.73H2059.09C2013.9 2522.73 1977.27 2486.1 1977.27 2440.91V2059.09Z" fill="black"/>
<path d="M1977.27 2686.36C1977.27 2641.18 2013.9 2604.55 2059.09 2604.55H2440.91C2486.1 2604.55 2522.73 2641.18 2522.73 2686.36V3068.18C2522.73 3113.37 2486.1 3150 2440.91 3150H2059.09C2013.9 3150 1977.27 3113.37 1977.27 3068.18V2686.36Z" fill="black"/>
<path d="M2604.55 1431.82C2604.55 1386.63 2641.18 1350 2686.36 1350H3068.18C3113.37 1350 3150 1386.63 3150 1431.82V1813.64C3150 1858.82 3113.37 1895.45 3068.18 1895.45H2686.36C2641.18 1895.45 2604.55 1858.82 2604.55 1813.64V1431.82Z" fill="black"/>
<path d="M2604.55 2059.09C2604.55 2013.9 2641.18 1977.27 2686.36 1977.27H3068.18C3113.37 1977.27 3150 2013.9 3150 2059.09V2440.91C3150 2486.1 3113.37 2522.73 3068.18 2522.73H2686.36C2641.18 2522.73 2604.55 2486.1 2604.55 2440.91V2059.09Z" fill="#898989"/>
<path d="M2604.55 2686.36C2604.55 2641.18 2641.18 2604.55 2686.36 2604.55H3068.18C3113.37 2604.55 3150 2641.18 3150 2686.36V3068.18C3150 3113.37 3113.37 3150 3068.18 3150H2686.36C2641.18 3150 2604.55 3113.37 2604.55 3068.18V2686.36Z" fill="#898989"/>
</svg>
