<svg width="3353" height="3353" viewBox="0 0 3353 3353" fill="none" xmlns="http://www.w3.org/2000/svg">
<rect x="1099" y="1099" width="350" height="350" rx="52.5" fill="white"/>
<rect x="1099" y="1501.5" width="350" height="350" rx="52.5" fill="#898989"/>
<path d="M1099 1956.5C1099 1927.51 1122.51 1904 1151.5 1904H1396.5C1425.49 1904 1449 1927.51 1449 1956.5V2201.5C1449 2230.49 1425.49 2254 1396.5 2254H1151.5C1122.51 2254 1099 2230.49 1099 2201.5V1956.5Z" fill="#898989"/>
<rect x="1501.5" y="1501.5" width="350" height="350" rx="52.5" fill="white"/>
<rect x="1501.5" y="1904" width="350" height="350" rx="52.5" fill="white"/>
<rect x="1904" y="1099" width="350" height="350" rx="52.5" fill="white"/>
<rect x="1904" y="1501.5" width="350" height="350" rx="52.5" fill="#898989"/>
<path d="M1904 1956.5C1904 1927.51 1927.51 1904 1956.5 1904H2201.5C2230.49 1904 2254 1927.51 2254 1956.5V2201.5C2254 2230.49 2230.49 2254 2201.5 2254H1956.5C1927.51 2254 1904 2230.49 1904 2201.5V1956.5Z" fill="#898989"/>
</svg>
