<?xml version="1.0" encoding="utf-8"?>
<!-- Generator: Adobe Illustrator 25.4.1, SVG Export Plug-In . SVG Version: 6.00 Build 0)  -->
<svg version="1.1" id="Layer_1" xmlns="http://www.w3.org/2000/svg" xmlns:xlink="http://www.w3.org/1999/xlink" x="0px" y="0px"
	 viewBox="0 0 300 112.28" style="enable-background:new 0 0 300 112.28;" xml:space="preserve">
<style type="text/css">
	.st0{fill:#1C1C20;}
	.st1{display:none;}
	.st2{display:inline;}
	.st3{fill:none;stroke:#27AAE1;stroke-width:0.25;stroke-miterlimit:10;}
</style>
<g id="Layer_1_00000116936919355712145490000017633023865452539017_">
	<g>
		<polygon class="st0" points="91.54,2.32 45.78,18 45.78,18.95 91.54,18.95 		"/>
		<g>
			<rect y="0" class="st0" width="16.09" height="110.37"/>
		</g>
		<g>
			<path class="st0" d="M102.7,79.24c0,23.38-16.85,33.04-34.03,33.04c-17.25,0-34.03-9.66-34.03-33.04v-42.3h16.09v40.84
				c0,14.18,7.9,19.39,17.94,19.39s17.94-5.21,17.94-19.39V36.95h16.09V79.24z"/>
		</g>
		<g>
			<path class="st0" d="M182,46.76l-10.27,10.96c-5.13-4.83-10.57-7.59-17.63-7.59c-12.35,0-21.68,9.66-21.68,23.53
				s9.35,23.53,21.68,23.53c7.04,0,13.34-3.3,18.02-7.67l9.89,11.03c-6.66,7.75-16.47,11.72-27.44,11.72
				c-23.38,0-38.63-16.63-38.63-38.63s15.25-38.63,38.63-38.63C165.52,35.02,175.48,39.01,182,46.76z"/>
		</g>
		<g>
			<rect x="194.09" y="36.95" class="st0" width="16.09" height="73.42"/>
		</g>
		<path class="st0" d="M283.99,0v45.83c-5.06-6.51-12.65-10.8-23.07-10.8c-20.54,0-36.72,16.17-36.72,38.63
			c0,22.45,16.17,38.63,36.72,38.63c10.42,0,18.02-4.22,23.07-10.73v8.82H300V0H283.99z M262.84,97.18
			c-13.8,0-22.16-10.65-22.16-23.53s8.36-23.53,22.16-23.53c13.26,0,22.16,10.12,22.16,23.53
			C284.98,87.07,276.09,97.18,262.84,97.18z"/>
	</g>
</g>
<g id="Safe_Space" class="st1">
	<g class="st2">
		<g>
			<rect x="248.23" y="37.98" class="st3" width="35.33" height="35.33"/>
			<rect x="283.55" y="37.98" class="st3" width="35.33" height="35.33"/>
		</g>
		<g>
			<rect x="224.67" y="-15.92" class="st3" width="35.33" height="35.33"/>
			<rect x="224.67" y="-51.26" class="st3" width="35.33" height="35.33"/>
		</g>
		<g>
			<rect x="224.67" y="126.96" class="st3" width="35.33" height="35.33"/>
			<rect x="224.67" y="91.63" class="st3" width="35.33" height="35.33"/>
		</g>
		<g>
			<rect x="16.57" y="37.98" class="st3" width="35.33" height="35.33"/>
			<rect x="-18.77" y="37.98" class="st3" width="35.33" height="35.33"/>
		</g>
	</g>
</g>
</svg>
